<?xml version="1.0" ?><svg height="32" id="svg2" version="1.1" viewBox="0 0 32 32.000001" width="32" xmlns="http://www.w3.org/2000/svg" xmlns:cc="http://creativecommons.org/ns#" xmlns:dc="http://purl.org/dc/elements/1.1/" xmlns:inkscape="http://www.inkscape.org/namespaces/inkscape" xmlns:rdf="http://www.w3.org/1999/02/22-rdf-syntax-ns#" xmlns:sodipodi="http://sodipodi.sourceforge.net/DTD/sodipodi-0.dtd" xmlns:svg="http://www.w3.org/2000/svg"><defs id="defs4"/><g id="layer1" transform="translate(0,-1020.3622)"><path d="m 23.875443,1038.9749 a 9.5003933,9.5 0 0 1 -4.616781,11.8795 9.5003933,9.5 0 0 1 -12.2823688,-3.4044 9.5003933,9.5 0 0 1 2.1581493,-12.561 9.5003933,9.5 0 0 1 12.7143865,0.8901" id="circle10848" style="opacity:1;fill:none;fill-opacity:1;stroke:#000000;stroke-width:0.99999994;stroke-linecap:round;stroke-linejoin:round;stroke-miterlimit:4;stroke-dasharray:none;stroke-opacity:1"/><path d="m 11.999471,1033.3626 0,-3 6.000249,0 0,3" id="path10850" style="fill:none;fill-rule:evenodd;stroke:#000000;stroke-width:0.99999994px;stroke-linecap:butt;stroke-linejoin:round;stroke-opacity:1"/><path d="m 14.999595,1030.3626 0,-2 a 3.0001242,3 0 0 1 3.000125,-3 l 5.000207,0" id="path10852" style="fill:none;fill-rule:evenodd;stroke:#000000;stroke-width:0.99999994px;stroke-linecap:butt;stroke-linejoin:miter;stroke-opacity:1"/><path d="m 24.507109,1025.3626 1.986232,0" id="path10854" style="fill:none;fill-rule:evenodd;stroke:#000000;stroke-width:0.99999976px;stroke-linecap:round;stroke-linejoin:round;stroke-opacity:1"/><path d="m 22.999927,1027.3693 0,1.9862" id="path10856" style="fill:none;fill-rule:evenodd;stroke:#000000;stroke-width:0.99999982px;stroke-linecap:round;stroke-linejoin:round;stroke-opacity:1"/><path d="m 22.999927,1021.3695 0,1.986" id="path10858" style="fill:none;fill-rule:evenodd;stroke:#000000;stroke-width:0.99999994px;stroke-linecap:round;stroke-linejoin:round;stroke-opacity:1"/><path d="m 25.00506,1023.3575 1.239951,-1.2399" id="path10860" style="fill:none;fill-rule:evenodd;stroke:#000000;stroke-width:0.99999994px;stroke-linecap:round;stroke-linejoin:round;stroke-opacity:1"/><path d="m 25.00506,1027.3676 1.239951,1.2399" id="path10862" style="fill:none;fill-rule:evenodd;stroke:#000000;stroke-width:0.99999994px;stroke-linecap:round;stroke-linejoin:round;stroke-opacity:1"/><path d="m 23.479306,1037.2075 a 0.5000207,0.5 0 0 1 -0.50002,0.5 0.5000207,0.5 0 0 1 -0.500021,-0.5 0.5000207,0.5 0 0 1 0.500021,-0.5 0.5000207,0.5 0 0 1 0.50002,0.5 z" id="path13346" style="opacity:1;fill:#000000;fill-opacity:1;stroke:none;stroke-width:1;stroke-linecap:round;stroke-linejoin:round;stroke-miterlimit:4;stroke-dasharray:none;stroke-opacity:1"/><path d="m 8.9373344,1042.3629 c -3e-5,-3.3482 2.7143126,-6.0624 6.0626206,-6.0624" id="path13369" style="opacity:1;fill:none;fill-opacity:1;stroke:#000000;stroke-width:0.99999994;stroke-linecap:round;stroke-linejoin:round;stroke-miterlimit:4;stroke-dasharray:none;stroke-opacity:1"/></g></svg>